{
    "accessors" : [
        {
            "bufferView" : 0,
            "componentType" : 5123,
            "count" : 6330,
            "max" : [
                2326
            ],
            "min" : [
                0
            ],
            "type" : "SCALAR"
        },
        {
            "bufferView" : 1,
            "componentType" : 5126,
            "count" : 2327,
            "max" : [
                2.5,
                3.0357935428619385,
                2.5
            ],
            "min" : [
                -2.501116991043091,
                -0.029406249523162842,
                -2.5
            ],
            "type" : "VEC3"
        },
        {
            "bufferView" : 2,
            "componentType" : 5126,
            "count" : 2327,
            "max" : [
                1.0,
                1.0,
                1.0
            ],
            "min" : [
                -1.0,
                -1.0,
                -1.0
            ],
            "type" : "VEC3"
        },
        {
            "bufferView" : 3,
            "componentType" : 5126,
            "count" : 2327,
            "max" : [
                0.9992703795433044,
                0.9992666331818327
            ],
            "min" : [
                0.0007296073017641902,
                0.0028110146522521973
            ],
            "type" : "VEC2"
        },
        {
            "bufferView" : 4,
            "componentType" : 5121,
            "count" : 324,
            "max" : [
                215
            ],
            "min" : [
                0
            ],
            "type" : "SCALAR"
        },
        {
            "bufferView" : 5,
            "componentType" : 5126,
            "count" : 216,
            "max" : [
                -0.11000703275203705,
                1.4259546995162964,
                0.2374706119298935
            ],
            "min" : [
                -0.6236823201179504,
                0.8795547485351562,
                -0.3882811665534973
            ],
            "type" : "VEC3"
        },
        {
            "bufferView" : 6,
            "componentType" : 5126,
            "count" : 216,
            "max" : [
                1.0,
                1.0,
                1.0
            ],
            "min" : [
                -1.0,
                -1.0,
                -1.0
            ],
            "type" : "VEC3"
        },
        {
            "bufferView" : 7,
            "componentType" : 5126,
            "count" : 216,
            "max" : [
                0.9871559739112854,
                0.4319641590118408
            ],
            "min" : [
                0.49748292565345764,
                0.007119894027709961
            ],
            "type" : "VEC2"
        },
        {
            "bufferView" : 8,
            "componentType" : 5121,
            "count" : 24,
            "max" : [
                15
            ],
            "min" : [
                0
            ],
            "type" : "SCALAR"
        },
        {
            "bufferView" : 9,
            "componentType" : 5126,
            "count" : 16,
            "max" : [
                0.00736546516418457,
                1.74812912940979,
                0.30423903465270996
            ],
            "min" : [
                -0.8521020412445068,
                0.9324342012405396,
                -0.5552282333374023
            ],
            "type" : "VEC3"
        },
        {
            "bufferView" : 10,
            "componentType" : 5126,
            "count" : 16,
            "max" : [
                1.0,
                0.0,
                1.0
            ],
            "min" : [
                -1.0,
                0.0,
                -1.0
            ],
            "type" : "VEC3"
        },
        {
            "bufferView" : 11,
            "componentType" : 5126,
            "count" : 16,
            "max" : [
                0.5840534567832947,
                0.1482371687889099
            ],
            "min" : [
                0.3669925034046173,
                0.0007333755493164062
            ],
            "type" : "VEC2"
        }
    ],
    "asset" : {
        "generator" : "Khronos Blender glTF 2.0 exporter",
        "version" : "2.0"
    },
    "bufferViews" : [
        {
            "buffer" : 0,
            "byteLength" : 12660,
            "byteOffset" : 0,
            "target" : 34963
        },
        {
            "buffer" : 0,
            "byteLength" : 27924,
            "byteOffset" : 12660,
            "target" : 34962
        },
        {
            "buffer" : 0,
            "byteLength" : 27924,
            "byteOffset" : 40584,
            "target" : 34962
        },
        {
            "buffer" : 0,
            "byteLength" : 18616,
            "byteOffset" : 68508,
            "target" : 34962
        },
        {
            "buffer" : 0,
            "byteLength" : 324,
            "byteOffset" : 87124,
            "target" : 34963
        },
        {
            "buffer" : 0,
            "byteLength" : 2592,
            "byteOffset" : 87448,
            "target" : 34962
        },
        {
            "buffer" : 0,
            "byteLength" : 2592,
            "byteOffset" : 90040,
            "target" : 34962
        },
        {
            "buffer" : 0,
            "byteLength" : 1728,
            "byteOffset" : 92632,
            "target" : 34962
        },
        {
            "buffer" : 0,
            "byteLength" : 24,
            "byteOffset" : 94360,
            "target" : 34963
        },
        {
            "buffer" : 0,
            "byteLength" : 192,
            "byteOffset" : 94384,
            "target" : 34962
        },
        {
            "buffer" : 0,
            "byteLength" : 192,
            "byteOffset" : 94576,
            "target" : 34962
        },
        {
            "buffer" : 0,
            "byteLength" : 128,
            "byteOffset" : 94768,
            "target" : 34962
        }
    ],
    "buffers" : [
        {
            "byteLength" : 94896,
            "uri" : "messestand_02.bin"
        }
    ],
    "images" : [
        {
            "name" : "TextureAtlas",
            "uri" : "TextureAtlas.png"
        }
    ],
    "materials" : [
        {
            "alphaMode" : "BLEND",
            "emissiveFactor" : [
                0.036799293011426926,
                0.036799293011426926,
                0.036799293011426926
            ],
            "name" : "color2",
            "pbrMetallicRoughness" : {
                "baseColorFactor" : [
                    0.5151531100273132,
                    0.8004239201545715,
                    1.0,
                    0.4708248972892761
                ],
                "metallicFactor" : 0.0,
                "roughnessFactor" : 0.0
            }
        },
        {
            "name" : "export",
            "pbrMetallicRoughness" : {
                "baseColorTexture" : {
                    "index" : 0
                },
                "metallicFactor" : 0.0
            }
        },
        {
            "doubleSided" : true,
            "name" : "metal",
            "pbrMetallicRoughness" : {
                "roughnessFactor" : 0.2749999761581421
            }
        }
    ],
    "meshes" : [
        {
            "name" : "Cube.001",
            "primitives" : [
                {
                    "attributes" : {
                        "NORMAL" : 2,
                        "POSITION" : 1,
                        "TEXCOORD_0" : 3
                    },
                    "indices" : 0,
                    "material" : 1
                },
                {
                    "attributes" : {
                        "NORMAL" : 6,
                        "POSITION" : 5,
                        "TEXCOORD_0" : 7
                    },
                    "indices" : 4,
                    "material" : 2
                },
                {
                    "attributes" : {
                        "NORMAL" : 10,
                        "POSITION" : 9,
                        "TEXCOORD_0" : 11
                    },
                    "indices" : 8,
                    "material" : 0
                }
            ]
        }
    ],
    "nodes" : [
        {
            "extras" : {
                "MM" : {},
                "hops" : {
                    "status" : 0
                },
                "s_curve" : {}
            },
            "mesh" : 0,
            "name" : "boden",
            "translation" : [
                0.02221747674047947,
                -0.03633260354399681,
                0.13018953800201416
            ]
        }
    ],
    "samplers" : [
        {}
    ],
    "scene" : 0,
    "scenes" : [
        {
            "extras" : {
                "rpr_data" : {
                    "environment" : {
                        "ibl" : {
                            "maps" : {}
                        }
                    }
                }
            },
            "name" : "Scene",
            "nodes" : [
                0
            ]
        }
    ],
    "textures" : [
        {
            "sampler" : 0,
            "source" : 0
        }
    ]
}
